<svg width="15" height="15" viewBox="0 0 15 15" fill="none" xmlns="http://www.w3.org/2000/svg">
<g clip-path="url(#clip0)">
<path d="M11.7188 5.62499H11.25V3.74999C11.25 1.68187 9.56812 -7.62939e-06 7.5 -7.62939e-06C5.43187 -7.62939e-06 3.75 1.68187 3.75 3.74999V5.62499H3.28125C2.50625 5.62499 1.875 6.25562 1.875 7.03124V13.5937C1.875 14.3694 2.50625 15 3.28125 15H11.7188C12.4937 15 13.125 14.3694 13.125 13.5937V7.03124C13.125 6.25562 12.4937 5.62499 11.7188 5.62499ZM5 3.74999C5 2.37124 6.12125 1.24999 7.5 1.24999C8.87875 1.24999 10 2.37124 10 3.74999V5.62499H5V3.74999ZM8.125 10.4512V11.875C8.125 12.22 7.84562 12.5 7.5 12.5C7.15438 12.5 6.875 12.22 6.875 11.875V10.4512C6.50313 10.2344 6.25 9.83562 6.25 9.37499C6.25 8.68562 6.81063 8.12499 7.5 8.12499C8.18937 8.12499 8.75 8.68562 8.75 9.37499C8.75 9.83562 8.49687 10.2344 8.125 10.4512Z" fill="#313131"/>
</g>
<defs>
<clipPath id="clip0">
<rect width="15" height="15" fill="white"/>
</clipPath>
</defs>
</svg>
