<svg width="35" height="35" viewBox="0 0 35 35" fill="none" xmlns="http://www.w3.org/2000/svg">
<g clip-path="url(#clip0)">
<path d="M25.9699 11.502L27.468 10.0039V8.26593L34.8295 0.904474L34.0103 0.0853119L26.6488 7.44677H24.9109L23.4128 8.94489L21.0955 6.6276L6.61239 21.1107L4.87442 19.3727L2.31729 21.9298L5.79323 25.4058L3.13645 28.0625L2.55713 27.4832L0 30.0404L4.87442 34.9148L7.43155 32.3576L6.85223 31.7783L9.509 29.1215L12.9849 32.5975L15.5421 30.0404L13.8041 28.3024L28.2872 13.8193L25.9699 11.502ZM25.3906 8.60541H26.3094V9.52422L25.1507 10.6829L24.2319 9.76406L25.3906 8.60541ZM4.87442 33.2765L1.63832 30.0404L2.55713 29.1215L5.79323 32.3576L4.87442 33.2765ZM6.03307 30.9592L3.95562 28.8817L6.61239 26.2249L8.68984 28.3024L6.03307 30.9592ZM13.9037 30.0404L12.9849 30.9592L10.3282 28.3024L6.61239 24.5866L3.95562 21.9298L4.87442 21.011L5.79323 21.9298L12.9849 29.1215L13.9037 30.0404ZM12.9849 27.4832L7.43155 21.9298L9.509 19.8524L11.996 22.3394L12.8152 21.5203L10.3282 19.0332L12.4056 16.9558L16.0513 20.6014L16.8705 19.7823L13.2248 16.1366L15.3022 14.0592L17.7893 16.5462L18.6084 15.727L16.1214 13.24L18.1988 11.1625L21.8445 14.8082L22.6637 13.9891L19.018 10.3434L21.0955 8.26593L22.5936 9.76406L25.1507 12.3212L26.6488 13.8193L12.9849 27.4832Z" fill="white"/>
<path d="M34.3499 7.71557H34.3493L32.682 6.04828L31.0147 7.71557C30.1483 8.58122 30.1477 9.98536 31.0134 10.8518C31.4295 11.2683 31.9942 11.5022 32.583 11.502H32.7817C34.0064 11.5025 34.9997 10.5099 35.0001 9.28517C35.0003 8.69636 34.7664 8.13167 34.3499 7.71557ZM33.5298 10.0332C33.3312 10.2316 33.0619 10.3432 32.7811 10.3433H32.5824C31.9972 10.3431 31.5229 9.86855 31.5232 9.28336C31.5232 9.00253 31.6348 8.73322 31.8333 8.53466L32.682 7.68653L33.5301 8.53466C33.9439 8.94859 33.9437 9.61944 33.5298 10.0332Z" fill="white"/>
</g>
<defs>
<clipPath id="clip0">
<rect width="35" height="35" fill="white"/>
</clipPath>
</defs>
</svg>
