<svg width="20" height="22" viewBox="0 0 20 22" fill="none" xmlns="http://www.w3.org/2000/svg">
<path d="M19.5 9.54833C19.4994 9.54783 19.499 9.54717 19.4985 9.54668L11.3401 0.708708C10.9923 0.331815 10.53 0.124359 10.0382 0.124359C9.54639 0.124359 9.08405 0.331815 8.73615 0.708708L0.581992 9.54221C0.579245 9.54519 0.576346 9.54833 0.573752 9.55131C-0.140361 10.3294 -0.13914 11.5918 0.577262 12.3679C0.904563 12.7227 1.33669 12.928 1.79888 12.9496C1.8178 12.9516 1.83672 12.9526 1.8558 12.9526H2.18081V19.4566C2.18081 20.7439 3.14761 21.7911 4.33581 21.7911H7.52765C7.85129 21.7911 8.11359 21.5067 8.11359 21.1563V16.057C8.11359 15.4697 8.55472 14.992 9.09687 14.992H10.9795C11.5216 14.992 11.9626 15.4697 11.9626 16.057V21.1563C11.9626 21.5067 12.2249 21.7911 12.5486 21.7911H15.7404C16.9288 21.7911 17.8954 20.7439 17.8954 19.4566V12.9526H18.1969C18.6886 12.9526 19.1509 12.7451 19.499 12.3681C20.2161 11.5908 20.2164 10.3261 19.5 9.54833ZM18.6703 11.4705C18.5438 11.6075 18.3756 11.6831 18.1969 11.6831H17.3095C16.9858 11.6831 16.7235 11.9672 16.7235 12.3178V19.4566C16.7235 20.0438 16.2826 20.5215 15.7404 20.5215H13.1345V16.057C13.1345 14.7698 12.1679 13.7224 10.9795 13.7224H9.09687C7.90851 13.7224 6.94171 14.7698 6.94171 16.057V20.5215H4.33581C3.79382 20.5215 3.35269 20.0438 3.35269 19.4566V12.3178C3.35269 11.9672 3.09039 11.6831 2.76675 11.6831H1.89456C1.8854 11.6824 1.8764 11.6819 1.86709 11.6817C1.69253 11.6784 1.5288 11.6034 1.40612 11.4703C1.14519 11.1876 1.14519 10.7276 1.40612 10.4448C1.40627 10.4448 1.40627 10.4446 1.40643 10.4444L1.40688 10.4439L9.56501 1.60631C9.69135 1.46927 9.85935 1.39389 10.0382 1.39389C10.2169 1.39389 10.3849 1.46927 10.5114 1.60631L18.6677 10.4421C18.6689 10.4434 18.6703 10.4448 18.6715 10.4461C18.931 10.7293 18.9306 11.1883 18.6703 11.4705Z" fill="#7A7A7A"/>
</svg>
