<svg width="35" height="35" viewBox="0 0 35 35" fill="none" xmlns="http://www.w3.org/2000/svg">
<g clip-path="url(#clip0)">
<path d="M24.7817 7.29872L24.1167 6.84255C21.7286 5.20853 18.4684 5.81587 16.8289 8.20022L8.61786 20.1709C6.98384 22.5591 7.59118 25.8192 9.97553 27.4587L10.6406 27.9149C13.0287 29.5489 16.2889 28.9416 17.9284 26.5572L26.1394 14.5866C27.7734 12.1984 27.1661 8.93827 24.7817 7.29872ZM23.6605 7.50759L24.3256 7.96376C26.343 9.35118 26.8569 12.1096 25.4744 14.1304L21.5969 19.7832L13.6165 14.3092L17.4939 8.65639C18.8813 6.63891 21.6397 6.12505 23.6605 7.50759ZM11.0967 27.2499L10.4317 26.7937C8.41422 25.4063 7.90036 22.6479 9.2829 20.6271L13.1603 14.9743L21.1408 20.4483L17.2634 26.1011C15.8759 28.1186 13.1176 28.6324 11.0967 27.2499Z" fill="#FF9118"/>
<path d="M19.459 20.7616L15.8013 18.2527C15.6176 18.1267 15.3666 18.1735 15.2407 18.3571C15.1147 18.5407 15.1615 18.7918 15.3451 18.9177L18.6703 21.1986L16.8456 23.8587C16.7197 24.0423 16.7664 24.2933 16.9501 24.4193C17.1337 24.5453 17.3847 24.4985 17.5107 24.3149L19.5634 21.3222C19.6894 21.1386 19.6426 20.8876 19.459 20.7616Z" fill="#FF9118"/>
<path d="M16.7222 24.7517C16.5385 24.6258 16.2875 24.6725 16.1616 24.8562L15.9335 25.1887C15.8075 25.3723 15.8543 25.6233 16.0379 25.7493C16.2215 25.8753 16.4726 25.8285 16.5985 25.6449L16.8266 25.3123C16.9526 25.1287 16.9058 24.8777 16.7222 24.7517Z" fill="#FF9118"/>
<path d="M14.6411 17.5986C14.6102 17.4387 14.4861 17.313 14.3266 17.2802C14.2748 17.2684 14.2214 17.2666 14.1689 17.2748C14.1174 17.2869 14.0683 17.308 14.0238 17.3366C13.8859 17.424 13.815 17.5864 13.8451 17.7469C13.8748 17.9075 13.9994 18.0336 14.1596 18.0653C14.2114 18.0761 14.2648 18.078 14.3172 18.0708C14.4776 18.0409 14.6038 17.9164 14.6356 17.7563C14.6464 17.7044 14.6483 17.6511 14.6411 17.5986Z" fill="#FF9118"/>
</g>
<defs>
<clipPath id="clip0">
<rect width="25" height="25" fill="white" transform="translate(14.1411) rotate(34.4472)"/>
</clipPath>
</defs>
</svg>
