<svg width="4" height="16" viewBox="0 0 4 16" fill="none" xmlns="http://www.w3.org/2000/svg">
<path d="M1.30762 1.65332C1.30762 1.54102 1.34505 1.44987 1.41992 1.37988C1.49642 1.3099 1.59163 1.2749 1.70557 1.2749C1.82113 1.2749 1.91634 1.3099 1.99121 1.37988C2.06771 1.44987 2.10596 1.54102 2.10596 1.65332C2.10596 1.764 2.06852 1.85433 1.99365 1.92432C1.91878 1.99268 1.82275 2.02686 1.70557 2.02686C1.59001 2.02686 1.49479 1.99268 1.41992 1.92432C1.34505 1.85433 1.30762 1.764 1.30762 1.65332ZM1.30762 7.65332C1.30762 7.54102 1.34505 7.44987 1.41992 7.37988C1.49642 7.3099 1.59163 7.2749 1.70557 7.2749C1.82113 7.2749 1.91634 7.3099 1.99121 7.37988C2.06771 7.44987 2.10596 7.54102 2.10596 7.65332C2.10596 7.764 2.06852 7.85433 1.99365 7.92432C1.91878 7.99268 1.82275 8.02686 1.70557 8.02686C1.59001 8.02686 1.49479 7.99268 1.41992 7.92432C1.34505 7.85433 1.30762 7.764 1.30762 7.65332ZM1.30762 13.6533C1.30762 13.541 1.34505 13.4499 1.41992 13.3799C1.49642 13.3099 1.59163 13.2749 1.70557 13.2749C1.82113 13.2749 1.91634 13.3099 1.99121 13.3799C2.06771 13.4499 2.10596 13.541 2.10596 13.6533C2.10596 13.764 2.06852 13.8543 1.99365 13.9243C1.91878 13.9927 1.82275 14.0269 1.70557 14.0269C1.59001 14.0269 1.49479 13.9927 1.41992 13.9243C1.34505 13.8543 1.30762 13.764 1.30762 13.6533Z" fill="#FF9118"/>
<path d="M1.41992 1.37988L0.74487 0.642035L0.737038 0.649356L1.41992 1.37988ZM1.99121 1.37988L1.30829 2.11045L1.3162 2.11769L1.99121 1.37988ZM1.99365 1.92432L2.66797 2.66285L2.67654 2.65484L1.99365 1.92432ZM1.41992 1.92432L0.736991 2.65489L0.745652 2.6628L1.41992 1.92432ZM2.30762 1.65332C2.30762 1.70939 2.29794 1.79001 2.26071 1.88065C2.22264 1.97335 2.16602 2.05132 2.10281 2.11041L0.737038 0.649356C0.439294 0.927682 0.307617 1.2936 0.307617 1.65332H2.30762ZM2.09494 2.11769C2.03943 2.16847 1.97081 2.21141 1.89367 2.23976C1.81806 2.26755 1.75192 2.2749 1.70557 2.2749V0.274902C1.36856 0.274902 1.0246 0.386186 0.744908 0.642077L2.09494 2.11769ZM1.70557 2.2749C1.66183 2.2749 1.59579 2.2681 1.51869 2.23976C1.43956 2.21068 1.36747 2.16569 1.30833 2.11041L2.67409 0.649356C2.38997 0.38376 2.03977 0.274902 1.70557 0.274902V2.2749ZM1.3162 2.11769C1.25301 2.05988 1.19479 1.98209 1.15517 1.88768C1.11634 1.79515 1.10596 1.71204 1.10596 1.65332H3.10596C3.10596 1.2865 2.9683 0.918447 2.66622 0.642077L1.3162 2.11769ZM1.10596 1.65332C1.10596 1.59453 1.11628 1.51242 1.15407 1.42124C1.19257 1.32832 1.24915 1.25139 1.31077 1.19379L2.67654 2.65484C2.97106 2.37952 3.10596 2.01621 3.10596 1.65332H1.10596ZM1.31938 1.18583C1.3808 1.12976 1.45346 1.08642 1.53015 1.05912C1.60458 1.03263 1.66673 1.02686 1.70557 1.02686V3.02686C2.03072 3.02686 2.38025 2.92545 2.66792 2.6628L1.31938 1.18583ZM1.70557 1.02686C1.74679 1.02686 1.81033 1.03309 1.88535 1.06003C1.96245 1.0877 2.03421 1.13107 2.09419 1.18583L0.745652 2.6628C1.03067 2.92303 1.37791 3.02686 1.70557 3.02686V1.02686ZM2.10281 1.19379C2.16443 1.25139 2.221 1.32832 2.25951 1.42124C2.2973 1.51242 2.30762 1.59453 2.30762 1.65332H0.307617C0.307617 2.01621 0.44251 2.37952 0.737038 2.65484L2.10281 1.19379ZM1.41992 7.37988L0.74487 6.64203L0.737038 6.64936L1.41992 7.37988ZM1.99121 7.37988L1.30829 8.11045L1.3162 8.11769L1.99121 7.37988ZM1.99365 7.92432L2.66797 8.66285L2.67654 8.65484L1.99365 7.92432ZM1.41992 7.92432L0.736991 8.65489L0.745652 8.6628L1.41992 7.92432ZM2.30762 7.65332C2.30762 7.70939 2.29794 7.79001 2.26071 7.88065C2.22264 7.97335 2.16602 8.05132 2.10281 8.11041L0.737038 6.64936C0.439294 6.92768 0.307617 7.2936 0.307617 7.65332H2.30762ZM2.09494 8.11769C2.03943 8.16847 1.97081 8.21141 1.89367 8.23976C1.81806 8.26755 1.75192 8.2749 1.70557 8.2749V6.2749C1.36856 6.2749 1.0246 6.38619 0.744908 6.64208L2.09494 8.11769ZM1.70557 8.2749C1.66183 8.2749 1.59579 8.2681 1.51869 8.23976C1.43956 8.21068 1.36747 8.16569 1.30833 8.11041L2.67409 6.64936C2.38997 6.38376 2.03977 6.2749 1.70557 6.2749V8.2749ZM1.3162 8.11769C1.25301 8.05988 1.19479 7.98209 1.15517 7.88768C1.11634 7.79515 1.10596 7.71204 1.10596 7.65332H3.10596C3.10596 7.2865 2.9683 6.91845 2.66622 6.64208L1.3162 8.11769ZM1.10596 7.65332C1.10596 7.59453 1.11628 7.51242 1.15407 7.42124C1.19257 7.32832 1.24915 7.25139 1.31077 7.19379L2.67654 8.65484C2.97106 8.37952 3.10596 8.01621 3.10596 7.65332H1.10596ZM1.31938 7.18583C1.3808 7.12976 1.45346 7.08642 1.53015 7.05912C1.60458 7.03263 1.66673 7.02686 1.70557 7.02686V9.02686C2.03072 9.02686 2.38025 8.92545 2.66792 8.6628L1.31938 7.18583ZM1.70557 7.02686C1.74679 7.02686 1.81033 7.03309 1.88535 7.06003C1.96245 7.0877 2.03421 7.13107 2.09419 7.18583L0.745652 8.6628C1.03067 8.92303 1.37791 9.02686 1.70557 9.02686V7.02686ZM2.10281 7.19379C2.16443 7.25139 2.221 7.32832 2.25951 7.42124C2.2973 7.51242 2.30762 7.59453 2.30762 7.65332H0.307617C0.307617 8.01621 0.44251 8.37952 0.737038 8.65484L2.10281 7.19379ZM1.41992 13.3799L0.74487 12.642L0.737038 12.6494L1.41992 13.3799ZM1.99121 13.3799L1.30829 14.1105L1.3162 14.1177L1.99121 13.3799ZM1.99365 13.9243L2.66797 14.6629L2.67654 14.6548L1.99365 13.9243ZM1.41992 13.9243L0.736991 14.6549L0.745652 14.6628L1.41992 13.9243ZM2.30762 13.6533C2.30762 13.7094 2.29794 13.79 2.26071 13.8807C2.22264 13.9733 2.16602 14.0513 2.10281 14.1104L0.737038 12.6494C0.439294 12.9277 0.307617 13.2936 0.307617 13.6533H2.30762ZM2.09494 14.1177C2.03943 14.1685 1.97081 14.2114 1.89367 14.2398C1.81806 14.2676 1.75192 14.2749 1.70557 14.2749V12.2749C1.36856 12.2749 1.0246 12.3862 0.744908 12.6421L2.09494 14.1177ZM1.70557 14.2749C1.66183 14.2749 1.59579 14.2681 1.51869 14.2398C1.43956 14.2107 1.36747 14.1657 1.30833 14.1104L2.67409 12.6494C2.38997 12.3838 2.03977 12.2749 1.70557 12.2749V14.2749ZM1.3162 14.1177C1.25301 14.0599 1.19479 13.9821 1.15517 13.8877C1.11634 13.7952 1.10596 13.712 1.10596 13.6533H3.10596C3.10596 13.2865 2.9683 12.9184 2.66622 12.6421L1.3162 14.1177ZM1.10596 13.6533C1.10596 13.5945 1.11628 13.5124 1.15407 13.4212C1.19257 13.3283 1.24915 13.2514 1.31077 13.1938L2.67654 14.6548C2.97106 14.3795 3.10596 14.0162 3.10596 13.6533H1.10596ZM1.31938 13.1858C1.3808 13.1298 1.45346 13.0864 1.53015 13.0591C1.60458 13.0326 1.66673 13.0269 1.70557 13.0269V15.0269C2.03072 15.0269 2.38025 14.9255 2.66792 14.6628L1.31938 13.1858ZM1.70557 13.0269C1.74679 13.0269 1.81033 13.0331 1.88535 13.06C1.96245 13.0877 2.03421 13.1311 2.09419 13.1858L0.745652 14.6628C1.03067 14.923 1.37791 15.0269 1.70557 15.0269V13.0269ZM2.10281 13.1938C2.16443 13.2514 2.221 13.3283 2.25951 13.4212C2.2973 13.5124 2.30762 13.5945 2.30762 13.6533H0.307617C0.307617 14.0162 0.44251 14.3795 0.737038 14.6548L2.10281 13.1938Z" fill="#FF9118"/>
</svg>
